<svg width="47" height="65" viewBox="0 0 47 65" fill="none" xmlns="http://www.w3.org/2000/svg">
<g filter="url(#filter0_d_11_1115)">
<path d="M16.0968 8.00017C14.2358 7.96966 12.7054 12.0832 14.5908 12.8568L15.6805 13.2973L17.8598 11.4059L17.6394 8.53831L16.5742 8.09901C16.4396 8.04654 16.3171 8.01603 16.1825 8.00383H16.0968V8.00017ZM32.5516 8.96662H32.27C31.364 9.00323 30.3968 9.22532 29.4174 9.66827C26.8218 10.8483 24.0793 13.6549 22.1082 18.9106L9.50991 52.8828L9.49766 52.9072V52.9316C9.60785 52.9926 9.93842 53.1634 10.4771 53.4197C11.677 54.0054 13.4155 55.3355 13.6726 58.1543V58.2153L13.5502 65H25.3771C25.3649 62.8523 25.5485 60.7901 26.3688 58.7156C27.8013 55.1281 31.1804 52.0164 38.2447 49.3196C38.2447 49.2952 38.2447 49.3196 38.257 49.2708C38.2937 49.0267 38.3059 48.5386 38.257 47.9285C38.1345 46.696 37.7672 44.89 37.204 42.779C36.0777 38.5446 34.1677 32.9924 32.0129 27.5378L31.7191 26.7813L32.3557 26.2688C36.7755 22.8276 38.612 19.3865 38.9426 16.5603C39.2731 13.7464 38.1468 11.4987 36.3348 10.1844C35.2696 9.41446 33.9718 8.9654 32.5516 8.96174V8.96662ZM20.0513 11.1179L20.137 12.3394L19.2065 13.1448L21.8633 14.2345C22.0102 13.9697 22.1694 13.7122 22.3285 13.4621L22.8183 12.2552L20.0513 11.1179ZM28.4991 13.3828C29.5765 13.3828 30.458 14.2565 30.458 15.3352C30.458 16.4139 29.5765 17.2876 28.4991 17.2876C27.4217 17.2876 26.5402 16.4139 26.5402 15.3352C26.5402 14.2565 27.4217 13.3828 28.4991 13.3828ZM11.7627 19.4475C9.90169 19.4109 8.3468 23.5232 10.2567 24.3041L11.3341 24.7434L13.5134 22.852L13.3053 19.9722L12.2279 19.5329C12.0932 19.4841 11.9708 19.4597 11.8484 19.4475H11.7627ZM15.705 22.5592L15.7907 23.7794L14.8602 24.5848L17.2966 25.5732L18.0557 23.5232L15.705 22.5592ZM24.4711 24.9753C25.5485 24.9753 26.43 25.8539 26.43 26.9277C26.43 28.0015 25.5485 28.8801 24.4711 28.8801C23.3937 28.8801 22.5122 28.0015 22.5122 26.9277C22.5122 25.8539 23.3937 24.9753 24.4711 24.9753ZM7.3551 31.1498C5.48189 31.1132 3.95149 35.2255 5.83695 36.0065L6.92659 36.4458L9.10588 34.5544L8.8855 31.6745L7.82035 31.2352C7.68567 31.1864 7.56324 31.162 7.44081 31.1498H7.3551ZM11.2974 34.2615L11.3831 35.4818L10.4526 36.2871L12.9502 37.3L13.7093 35.2499L11.2974 34.2615ZM19.5249 36.6166C20.6023 36.6166 21.4838 37.4952 21.4838 38.569C21.4838 39.6429 20.6023 40.5215 19.5249 40.5215C18.4474 40.5215 17.5659 39.6429 17.5659 38.569C17.5659 37.4952 18.4474 36.6166 19.5249 36.6166ZM2.37212 43.2549C0.511152 43.2183 -1.02904 47.3306 0.866206 48.1115L1.94361 48.5508L4.1229 46.6594L3.90252 43.7796L2.83736 43.3403C2.70269 43.2915 2.58025 43.2671 2.45782 43.2549H2.37212ZM6.31443 46.3665L6.40013 47.5868L5.46965 48.3922L8.2611 49.527L9.09364 47.5014L6.31443 46.3665ZM14.799 48.624C15.8764 48.624 16.7579 49.5026 16.7579 50.5765C16.7579 51.6503 15.8764 52.5289 14.799 52.5289C13.7216 52.5289 12.8401 51.6503 12.8401 50.5765C12.8401 49.5026 13.7216 48.624 14.799 48.624Z" fill="white"/>
</g>
<defs>
<filter id="filter0_d_11_1115" x="0" y="0" width="47" height="65" filterUnits="userSpaceOnUse" color-interpolation-filters="sRGB">
<feFlood flood-opacity="0" result="BackgroundImageFix"/>
<feColorMatrix in="SourceAlpha" type="matrix" values="0 0 0 0 0 0 0 0 0 0 0 0 0 0 0 0 0 0 127 0" result="hardAlpha"/>
<feOffset dx="4" dy="-4"/>
<feGaussianBlur stdDeviation="2"/>
<feComposite in2="hardAlpha" operator="out"/>
<feColorMatrix type="matrix" values="0 0 0 0 0 0 0 0 0 0 0 0 0 0 0 0 0 0 0.25 0"/>
<feBlend mode="normal" in2="BackgroundImageFix" result="effect1_dropShadow_11_1115"/>
<feBlend mode="normal" in="SourceGraphic" in2="effect1_dropShadow_11_1115" result="shape"/>
</filter>
</defs>
</svg>
