<svg width="61" height="62" viewBox="0 0 61 62" fill="none" xmlns="http://www.w3.org/2000/svg">
<g filter="url(#filter0_d_26_455)">
<path d="M46.3769 3.74133C43.456 3.74133 40.5176 4.93469 38.4185 6.96658C39.1472 12.8242 41.1259 16.5635 43.9727 18.9357C46.7974 21.2898 50.5841 22.3482 55.1128 22.5342C56.818 20.4941 57.8027 17.8261 57.8027 15.1709C57.8027 12.1917 56.5649 9.19613 54.4582 7.0896C52.3516 4.98293 49.356 3.74133 46.3769 3.74133ZM36.6927 9.12084C35.5745 10.9292 34.9471 13.0546 34.9471 15.1709C34.9471 18.1501 36.1889 21.1457 38.2954 23.2523C40.4022 25.3589 43.3977 26.6006 46.377 26.6006C48.7483 26.6006 51.1301 25.814 53.0658 24.4306C49.0604 24.0244 45.4961 22.8488 42.6715 20.4951C39.7164 18.0326 37.6501 14.3201 36.6928 9.12097L36.6927 9.12084ZM33.1659 17.7181L24.9812 28.3542C25.3491 30.8425 26.3089 32.8103 27.7861 34.2178C29.2705 35.6323 31.3045 36.518 33.9553 36.7094L44.0242 28.4219C41.3328 27.9362 38.8013 26.6306 36.8593 24.6886C34.9643 22.7936 33.6783 20.3359 33.1656 17.718L33.1659 17.7181ZM35.0859 25.577H35.0897C35.1123 25.5763 35.1349 25.5763 35.1574 25.577C35.3535 25.5783 35.5451 25.6363 35.7089 25.744C35.8728 25.8517 36.0019 26.0046 36.0808 26.1841C36.1597 26.3637 36.1849 26.5622 36.1534 26.7558C36.1219 26.9493 36.035 27.1296 35.9033 27.2749L31.5471 32.1981C31.4594 32.3002 31.3523 32.3838 31.232 32.4441C31.1117 32.5044 30.9806 32.5402 30.8464 32.5495C30.7121 32.5587 30.5774 32.5412 30.45 32.498C30.3225 32.4547 30.205 32.3866 30.1041 32.2975C30.0032 32.2085 29.921 32.1003 29.8623 31.9792C29.8036 31.8581 29.7695 31.7266 29.762 31.5922C29.7545 31.4579 29.7738 31.3234 29.8187 31.1965C29.8636 31.0697 29.9333 30.953 30.0237 30.8533L34.3798 25.9301C34.468 25.8271 34.5759 25.7428 34.6972 25.6822C34.8185 25.6216 34.9506 25.5857 35.0859 25.577ZM23.3547 30.4688L10.0762 47.7225C10.5189 49.4144 11.0062 50.3814 11.6631 51.0271C12.3017 51.6552 13.2355 52.1011 14.6545 52.6023L31.8328 38.4549C29.6661 37.9966 27.8217 37.058 26.3857 35.6898C24.9453 34.3175 23.9327 32.538 23.3547 30.4688ZM9.18369 51.0828C8.02588 51.766 6.97852 52.8703 6.24778 54.1812C5.02192 56.3797 4.78528 58.9084 5.96213 60.5885C6.80827 61.1391 7.30352 61.1992 7.71967 61.14C7.94742 61.1075 8.17899 61.0189 8.43365 60.902C8.02994 59.6864 7.63385 58.2449 8.11627 56.6727C8.50094 55.4196 9.42681 54.255 11.0959 53.1814C10.7899 52.9718 10.5032 52.7355 10.2389 52.4753C9.83052 52.0738 9.48483 51.6146 9.18357 51.0827L9.18369 51.0828Z" fill="white"/>
</g>
<defs>
<filter id="filter0_d_26_455" x="0.193359" y="-4.25867" width="60.6094" height="65.417" filterUnits="userSpaceOnUse" color-interpolation-filters="sRGB">
<feFlood flood-opacity="0" result="BackgroundImageFix"/>
<feColorMatrix in="SourceAlpha" type="matrix" values="0 0 0 0 0 0 0 0 0 0 0 0 0 0 0 0 0 0 127 0" result="hardAlpha"/>
<feOffset dx="-1" dy="-4"/>
<feGaussianBlur stdDeviation="2"/>
<feComposite in2="hardAlpha" operator="out"/>
<feColorMatrix type="matrix" values="0 0 0 0 0 0 0 0 0 0 0 0 0 0 0 0 0 0 0.25 0"/>
<feBlend mode="normal" in2="BackgroundImageFix" result="effect1_dropShadow_26_455"/>
<feBlend mode="normal" in="SourceGraphic" in2="effect1_dropShadow_26_455" result="shape"/>
</filter>
</defs>
</svg>
