<svg width="40" height="40" viewBox="0 0 40 40" fill="none" xmlns="http://www.w3.org/2000/svg">
<path d="M15.8334 25.9733V14.0266C15.8336 13.8772 15.8741 13.7305 15.9505 13.6021C16.0269 13.4736 16.1364 13.368 16.2677 13.2965C16.3989 13.2249 16.5469 13.1899 16.6963 13.1952C16.8457 13.2005 16.9909 13.2459 17.1167 13.3266L26.41 19.2983C26.5277 19.3737 26.6245 19.4775 26.6916 19.6001C26.7587 19.7227 26.7938 19.8602 26.7938 20C26.7938 20.1397 26.7587 20.2772 26.6916 20.3999C26.6245 20.5225 26.5277 20.6263 26.41 20.7016L17.1167 26.675C16.9909 26.7557 16.8457 26.8011 16.6963 26.8064C16.5469 26.8117 16.3989 26.7767 16.2677 26.7052C16.1364 26.6336 16.0269 26.528 15.9505 26.3996C15.8741 26.2711 15.8336 26.1245 15.8334 25.975V25.9733Z" fill="white"/>
<path d="M1.66663 20C1.66663 9.87502 9.87496 1.66669 20 1.66669C30.125 1.66669 38.3333 9.87502 38.3333 20C38.3333 30.125 30.125 38.3334 20 38.3334C9.87496 38.3334 1.66663 30.125 1.66663 20ZM20 4.16669C15.8007 4.16669 11.7734 5.83484 8.8041 8.80416C5.83478 11.7735 4.16663 15.8008 4.16663 20C4.16663 24.1993 5.83478 28.2266 8.8041 31.1959C11.7734 34.1652 15.8007 35.8334 20 35.8334C24.1992 35.8334 28.2265 34.1652 31.1958 31.1959C34.1651 28.2266 35.8333 24.1993 35.8333 20C35.8333 15.8008 34.1651 11.7735 31.1958 8.80416C28.2265 5.83484 24.1992 4.16669 20 4.16669Z" fill="white"/>
</svg>
